<svg width="1393" height="427" viewBox="0 0 1393 427" fill="none" xmlns="http://www.w3.org/2000/svg">
<path d="M922.221 292.425H790.653V234.298H885.589V185.268H836.57C815.427 185.268 797.894 168.596 797.365 147.37L797.894 57.3931C797.894 36.6754 815.427 19.9934 836.57 19.9934H951.622V79.1275H873.721V124.619H922.221C943.883 124.619 961.426 141.301 960.918 162.029V255.026C961.426 275.743 943.883 292.934 922.221 292.425ZM1030.56 19.9934H1141.48V79.6359H1068.74V234.806H1141.48V292.425H1031.08C1009.41 292.934 991.864 275.743 991.864 255.026L991.366 57.3931C991.366 36.6754 1008.9 19.9934 1030.56 19.9934ZM34.825 292.425V19.9934H113.245L159.681 134.226V19.9934H238.101V292.425H159.681L112.726 176.17L113.245 292.425H34.825ZM278.344 292.425V19.9934H430.028V79.1275H356.245V124.619H430.028V185.268H356.245V234.806H430.028V292.425H278.344ZM484.193 292.425V79.6359H444.988V19.9934H598.218V79.6359H559.002V292.425H484.193ZM612.151 79.1275V19.9934H775.184V80.1442L678.702 234.806H770.537V293.432H594.099L593.58 234.806L690.052 79.1275H612.151ZM1165.22 292.425V19.9934H1243.12V124.619H1279.75V19.9934H1358.17V292.425H1279.75V185.268H1243.12V292.425H1165.22Z" fill="#31766F"/>
<path d="M74.976 403H35.04V305.976H74.976V322.104H54.88V343.096H74.976V359.096H54.88V386.872H74.976V403ZM141.44 403H119.552L110.848 371.896L101.632 403H82.048L99.456 351.288L84.608 305.976H106.88L113.28 332.728L119.936 305.976H139.904L125.056 351.288L141.44 403ZM191.459 325.048C187.619 322.744 185.827 322.232 182.499 322.232C171.107 322.232 164.963 334.264 164.963 355.384C164.963 375.608 170.851 386.872 181.859 386.872C185.187 386.872 187.107 386.36 190.691 383.8V402.104C185.827 404.28 183.779 404.792 178.659 404.792C157.539 404.792 144.099 385.464 144.099 355.128C144.099 324.664 158.179 304.568 179.427 304.568C184.035 304.568 186.211 304.952 191.459 307V325.048ZM255.288 403H235.192V359.096H221.88V403H202.04V305.976H221.88V343.096H235.192V305.976H255.288V403ZM324.854 403H303.606L300.406 380.6H287.478L284.15 403H263.798L282.486 305.976H306.294L324.854 403ZM298.102 364.344L294.006 336.696L290.038 364.344H298.102ZM390.503 403H374.119L352.487 354.232V403H333.415V305.976H352.103L371.559 349.624V305.976H390.503V403ZM453.704 400.568C447.816 403.384 443.08 404.536 436.552 404.536C414.792 404.536 401.224 386.104 401.224 356.792C401.224 325.688 416.456 304.568 438.856 304.568C444.36 304.568 448.84 305.592 453.704 308.152V326.456C449.992 323.512 446.408 322.232 441.8 322.232C429.128 322.232 422.344 334.392 422.344 356.792C422.344 374.328 426.824 386.104 433.736 386.104C434.248 386.104 434.888 385.976 435.784 385.72V366.52H430.024V351.416H453.704V400.568ZM507.226 403H467.29V305.976H507.226V322.104H487.13V343.096H507.226V359.096H487.13V386.872H507.226V403Z" fill="black"/>
</svg>
